<svg preserveAspectRatio="none" width="100%" height="100%" overflow="visible" style="display: block;" viewBox="0 0 48 48" fill="none" xmlns="http://www.w3.org/2000/svg">
<g id="icon.24.interaction.click.small">
<g id="Union">
<path fill-rule="evenodd" clip-rule="evenodd" d="M22.5859 22.586C23.1403 22.0315 23.9679 21.8519 24.7021 22.127L36.7021 26.627C37.5217 26.9343 38.0465 27.7394 37.997 28.6133C37.9471 29.4872 37.3344 30.2281 36.4853 30.4404L31.6494 31.6494L30.4404 36.4854C30.2278 37.3344 29.4871 37.9473 28.6132 37.9971C27.7396 38.0464 26.9343 37.5215 26.6269 36.7022L22.1269 24.7022C21.8518 23.9681 22.0317 23.1404 22.5859 22.586ZM28.4999 36L29.9999 30L35.9999 28.5L23.9999 24L28.4999 36Z" fill="var(--fill-0, black)" fill-opacity="0.3"/>
<path d="M19.6552 31.876C19.8588 31.3844 20.4422 31.1846 20.9335 31.3887C21.4246 31.5927 21.7062 32.1494 21.5029 32.6406L19.9492 36.3936C19.7376 36.9033 19.1525 37.1457 18.6425 36.9346C18.1325 36.7233 17.8905 36.1381 18.1015 35.6279L19.6552 31.876Z" fill="var(--fill-0, black)" fill-opacity="0.3"/>
<path d="M15.3574 26.4961C15.849 26.2924 16.4072 26.574 16.6113 27.0654C16.8151 27.5567 16.6152 28.1401 16.124 28.3438L12.372 29.8985C11.8619 30.1095 11.2768 29.8674 11.0654 29.3574C10.8543 28.8475 11.0966 28.2623 11.6064 28.0508L15.3574 26.4961Z" fill="var(--fill-0, black)" fill-opacity="0.3"/>
<path d="M11.0654 18.6426C11.2767 18.1324 11.8618 17.8904 12.372 18.1016L16.123 19.6553C16.6146 19.8589 16.8143 20.4421 16.6103 20.9336C16.4062 21.4247 15.8497 21.7063 15.3583 21.5029L11.6064 19.9492C11.0967 19.7378 10.8545 19.1525 11.0654 18.6426Z" fill="var(--fill-0, black)" fill-opacity="0.3"/>
<path d="M35.6279 18.1016C36.1381 17.8903 36.7232 18.1324 36.9345 18.6426C37.1455 19.1526 36.9034 19.7378 36.3935 19.9492L32.6406 21.5029C32.1495 21.7058 31.5926 21.4243 31.3886 20.9336C31.1847 20.4421 31.3844 19.8581 31.8759 19.6543L35.6279 18.1016Z" fill="var(--fill-0, black)" fill-opacity="0.3"/>
<path d="M18.6425 11.0654C19.1527 10.8543 19.7378 11.0973 19.9492 11.6074L21.5029 15.3584C21.7061 15.8496 21.4244 16.4063 20.9335 16.6104C20.4425 16.8142 19.8589 16.6151 19.6552 16.124L18.1015 12.3721C17.8903 11.8621 18.1327 11.277 18.6425 11.0654Z" fill="var(--fill-0, black)" fill-opacity="0.3"/>
<path d="M28.0507 11.6074C28.262 11.0973 28.8472 10.8544 29.3574 11.0654C29.8676 11.2768 30.1096 11.8619 29.8984 12.3721L28.3437 16.124C28.1399 16.615 27.5572 16.8146 27.0664 16.6104C26.5755 16.406 26.2939 15.8487 26.497 15.3574L28.0507 11.6074Z" fill="var(--fill-0, black)" fill-opacity="0.3"/>
</g>
</g>
</svg>
