<svg preserveAspectRatio="none" width="100%" height="100%" overflow="visible" style="display: block;" viewBox="0 0 48 48" fill="none" xmlns="http://www.w3.org/2000/svg">
<g id="icon.16.detach">
<g id="Icon">
<path d="M24.7062 32.2927C25.0968 32.6833 25.0968 33.3164 24.7062 33.707L21.7066 36.7066C18.8308 39.5822 14.1684 39.5829 11.2926 36.7073C8.41694 33.8316 8.41703 29.1685 11.2926 26.2927L14.2923 23.293C14.6828 22.9025 15.316 22.9025 15.7065 23.293C16.097 23.6835 16.097 24.3167 15.7065 24.7072L12.7068 27.7069C10.6123 29.8017 10.6122 33.1984 12.7068 35.2931C14.8015 37.3876 18.1976 37.3869 20.2923 35.2924L23.292 32.2927C23.6824 31.9023 24.3157 31.9025 24.7062 32.2927Z" fill="var(--fill-0, black)" fill-opacity="0.3"/>
<path d="M11.9997 15.4996C12.552 15.4996 13.0003 15.9479 13.0003 16.5002C13.0001 17.0522 12.5524 17.4999 12.0004 17.5001H7.49951C6.94755 17.4999 6.49979 17.0522 6.49962 16.5002C6.49962 15.9479 6.94792 15.4996 7.5002 15.4996H11.9997Z" fill="var(--fill-0, black)" fill-opacity="0.3"/>
<path d="M31.4997 34.9996C32.052 34.9996 32.5003 35.4479 32.5003 36.0002V40.4997C32.5003 41.052 32.052 41.5003 31.4997 41.5003C30.9477 41.5002 30.5001 41.0524 30.4998 40.5004V35.9995C30.5 35.4475 30.9477 34.9998 31.4997 34.9996Z" fill="var(--fill-0, black)" fill-opacity="0.3"/>
<path d="M16.4999 6.49991C17.0522 6.49991 17.4998 6.94752 17.4998 7.49981V11.9993C17.4998 12.5516 17.0522 12.9992 16.4999 12.9992C15.9477 12.9992 15.5 12.5516 15.5 11.9993V7.49981C15.5 6.94752 15.9477 6.49992 16.4999 6.49991Z" fill="var(--fill-0, black)" fill-opacity="0.3"/>
<path d="M40.5001 30.5001C41.0523 30.5002 41.5 30.9478 41.5 31.5C41.5 32.0522 41.0523 32.4998 40.5001 32.4999H36.0006C35.4483 32.4999 35 32.0516 35 31.4993C35.0003 30.9473 35.4479 30.4995 35.9999 30.4994L40.5001 30.5001Z" fill="var(--fill-0, black)" fill-opacity="0.3"/>
<path d="M36.707 11.2929C39.5825 14.1685 39.583 18.831 36.7077 21.7069L33.7073 24.7072C33.3169 25.0978 32.6837 25.0977 32.2931 24.7072C31.9027 24.3167 31.9027 23.6835 32.2931 23.293L35.2935 20.2926C37.3877 18.1978 37.3873 14.8017 35.2928 12.7071C33.198 10.6124 29.8014 10.6124 27.7066 12.7071L24.7069 15.7068C24.3164 16.0973 23.6832 16.0973 23.2927 15.7068C22.9023 15.3163 22.9022 14.6831 23.2927 14.2926L26.2924 11.2929C29.1682 8.4171 33.8312 8.41713 36.707 11.2929Z" fill="var(--fill-0, black)" fill-opacity="0.3"/>
</g>
</g>
</svg>
